<?xml version="1.0" encoding="utf-8"?>
<!-- Generator: Adobe Illustrator 25.2.1, SVG Export Plug-In . SVG Version: 6.00 Build 0)  -->
<svg version="1.1" id="Calque_1" xmlns="http://www.w3.org/2000/svg" xmlns:xlink="http://www.w3.org/1999/xlink" x="0px" y="0px"
	 viewBox="0 0 500 500" style="enable-background:new 0 0 500 500;" xml:space="preserve">
<rect width="500" height="500"/>
<g>
	<path style="fill:#FFFFFF;stroke:#FFFFFF;stroke-width:3;stroke-miterlimit:10;" d="M310.4,328.3c-7.7,1.1-16.6-2.5-25.1-6
		c-8.7-3.6-17.7-7.3-25.6-6.1c-8,1.2-15.5,7.3-22.8,13.2c-7.1,5.8-14.5,11.8-22.3,13c-0.3,0-0.5,0-0.8,0.1c-0.2,0-0.4,0-0.6,0
		c-9.5,0.6-18.6-5.1-27.4-10.6c-7.8-4.8-15.1-9.4-22.1-9.6c-1.3-0.1-2.7,0-4.3,0.3c-7.1,1-14.4,4.9-21.4,8.6
		c-6.8,3.6-13.3,7-19.5,7.9c-2.2,0.3-4,0.3-5.7,0.1c-11.1-1.8-19.3-11.2-26.6-19.6c-5.1-5.8-9.8-11.3-14.9-13.5
		c-6.6-2.9-14-4.7-21.1-6.5c-14-3.5-26.1-6.6-27.5-16.1c-1.4-9.5,9.3-15.9,21.7-23.3c6.3-3.8,12.9-7.7,18.3-12.3
		c4.3-3.6,7.3-10.3,10.4-17.3c4.5-10,9.6-21.4,19.7-26.3c1.9-0.8,3.7-1.3,5.5-1.6c6.2-0.9,13.3,0.5,20.9,2c7.8,1.5,15.9,3.1,23,2.1
		c1.6-0.2,3-0.5,4.2-1c6.7-2.2,12.4-8.7,18.5-15.6c6.9-7.8,14-15.9,23.1-18c0.5-0.2,1-0.2,1.5-0.3c7.7-1.1,16.6,2.5,25.1,6
		c8.7,3.6,17.7,7.3,25.6,6.1c8-1.2,15.5-7.3,22.8-13.2c7.1-5.8,14.5-11.8,22.3-13c0.3,0,0.5,0,0.8-0.1c0.2,0,0.4,0,0.6,0
		c9.5-0.6,18.6,5.1,27.4,10.6c7.8,4.8,15.1,9.4,22.1,9.6c1.3,0.1,2.7,0,4.3-0.3c7.1-1,14.4-4.9,21.4-8.6c6.8-3.6,13.3-7,19.5-7.9
		c2.2-0.3,4-0.3,5.7-0.1c11.1,1.8,19.3,11.2,26.6,19.6c5.1,5.8,9.8,11.3,14.9,13.5l0,0c6.6,2.9,14,4.7,21.2,6.6
		c14,3.5,26.1,6.6,27.6,16c1.4,9.6-9.4,16-21.9,23.4c-6.3,3.8-12.8,7.6-18.2,12.2c-4.3,3.6-7.3,10.3-10.5,17.3
		c-4.5,10-9.6,21.4-19.8,26.3c-1.9,0.8-3.7,1.3-5.5,1.6c-6.2,0.9-13.3-0.5-20.9-2c-7.8-1.5-15.9-3.1-23-2.1c-1.7,0.2-3,0.5-4.2,1
		c-6.7,2.2-12.4,8.7-18.5,15.6c-6.9,7.8-14,15.9-23,18C311.4,328.1,310.9,328.2,310.4,328.3z M259.4,314.3
		c8.4-1.2,17.6,2.6,26.6,6.3c8.7,3.6,16.9,7,24.2,5.9c0.4-0.1,0.8-0.1,1.2-0.2l0.1,0c8.5-2,15.4-9.8,22.1-17.4
		c6.2-7.1,12.1-13.8,19.3-16.1c1.3-0.5,2.8-0.8,4.5-1.1c7.5-1.1,15.7,0.5,23.6,2.1c7.4,1.5,14.4,2.9,20.2,2c1.7-0.2,3.3-0.7,5-1.4
		c9.5-4.6,14.3-15.2,18.9-25.4c3.3-7.3,6.4-14.1,11-18c5.5-4.7,12.1-8.6,18.5-12.4c11.9-7.1,22.2-13.2,21-21.6
		c-1.3-8.2-12.9-11.1-26.3-14.5c-7.2-1.8-14.7-3.7-21.4-6.7l0,0c-5.5-2.4-10.4-8-15.6-14c-7.4-8.5-15-17.3-25.5-19
		c-1.6-0.3-3.2-0.2-5.2,0.1c-5.9,0.9-12.2,4.2-18.9,7.7c-7.2,3.8-14.6,7.7-22,8.8c-1.7,0.3-3.3,0.4-4.7,0.3
		c-7.5-0.2-15.1-4.9-23-9.9c-8.6-5.4-17.5-10.9-26.3-10.3c-0.2,0-0.4,0-0.7,0.1c-0.2,0-0.4,0-0.6,0c-7.2,1.1-14.1,6.7-21.4,12.6
		c-7.5,6.1-15.2,12.4-23.7,13.6c-8.4,1.2-17.6-2.6-26.6-6.3c-8.7-3.6-16.9-7-24.2-5.9c-0.4,0.1-0.8,0.1-1.2,0.2l-0.1,0
		c-8.5,2-15.4,9.8-22.1,17.4c-6.2,7.1-12.1,13.8-19.3,16.1c-1.3,0.5-2.8,0.8-4.5,1c-7.5,1.1-15.7-0.5-23.6-2.1
		c-7.4-1.5-14.4-2.8-20.2-2c-1.7,0.2-3.3,0.7-5,1.4c-9.4,4.5-14.1,15.1-18.7,25.4c-3.3,7.3-6.3,14.1-10.9,18
		c-5.6,4.7-12.2,8.7-18.6,12.5c-11.8,7.1-22.1,13.2-20.9,21.4c1.2,8.3,12.8,11.2,26.1,14.6c7.2,1.8,14.7,3.7,21.4,6.6
		c5.5,2.4,10.4,8,15.6,14c7.4,8.5,15,17.3,25.5,19c1.6,0.3,3.2,0.2,5.2-0.1c5.9-0.9,12.2-4.2,18.9-7.7c7.2-3.8,14.6-7.7,22-8.8
		c1.7-0.3,3.3-0.4,4.7-0.3c7.5,0.2,15.1,4.9,23,9.9c8.6,5.4,17.5,10.9,26.3,10.3c0.2,0,0.4,0,0.7-0.1c0.2,0,0.4,0,0.6,0
		c7.2-1.1,14.1-6.7,21.4-12.6C243.2,321.8,250.9,315.5,259.4,314.3z"/>
	<g>
		<path style="fill:#FFFFFF;" d="M145.2,289.5c-29.4,4.3-33.4-19.5-33.4-19.5l16.9-2.5c0,0,1.4,9.5,13.8,7.7
			c10.8-1.6,11.7-7.3,11.8-8.8c0-0.2-0.1-0.4-0.1-0.5l-2.4-16.3l-21,3.1l-2.1-14.1l38.3-5.6l4.5,30.6
			C171.5,263.4,174.5,285.2,145.2,289.5z"/>
		<path style="fill:#FFFFFF;" d="M236.7,232l6.3,43.2l-17.1,2.5l-1-6.6c-3.2,4.3-8.1,7.8-18,9.3c-12.8,1.9-20.7,0.8-25.8-6.8
			c-3.6-5.5-5.2-12.8-7.6-29l-0.5-3.4l17.2-2.5l2.1,14.2c0.9,6.4,2,14.6,14.8,12.7c7.5-1.1,13.7-1.4,15.3-6.9
			c0.4-1.2,0.4-2.4,0.2-3.5l-3-20.7L236.7,232L236.7,232z"/>
		<path style="fill:#FFFFFF;" d="M242.6,233.5l-1.6-11.2l17.3-2.5l7.6,52.1l-17.3,2.5l-0.7-4.6L242.6,233.5L242.6,233.5z"/>
		<path style="fill:#FFFFFF;" d="M330,244.6l-44.2,6.5c0.8,2.3,4.8,3.9,14.2,2.6c12.8-1.9,30.6-4.2,30.6-4.2l1.9,12.8
			c0,0-7.1,0.9-30,4.3c-25.9,3.8-33.1-4.2-35-17.4c-2-13.7,6.9-23.6,28.2-26.7C315.2,219.5,328.5,224.3,330,244.6z M284.7,243.4
			l26.6-3.9c-0.4-2.9-3.6-5.3-13.8-3.8C286.2,237.4,284.4,241.4,284.7,243.4z"/>
		<path style="fill:#FFFFFF;" d="M388.9,239.8c1.7,11.3,0.5,14-25.5,17.8l-25,3.7l-1.9-12.8c3.7-0.5,17.2-2.1,25.6-3.3
			c9.8-1.4,10.7-1.5,10.4-3.4c-0.3-2.4-1.1-1.8-12-0.2c-18.4,2.7-26.4,1.5-28.1-9.9c-1.9-13,5.8-15,25.7-17.9l23.4-3.4l1.9,12.8
			c-7.4,1.1-15.8,1.9-24.7,3.2c-8.9,1.3-10,1.3-9.6,3.5c0.4,2,0.9,1.5,10,0.2C383.6,226.7,387.2,228.4,388.9,239.8z"/>
	</g>
</g>
</svg>
